<svg width="51" height="50" viewBox="0 0 51 50" fill="none" xmlns="http://www.w3.org/2000/svg">
<g clip-path="url(#clip0_2562_23890)">
<path d="M25.5 2.1582C11.9274 2.1582 0.5 11.4741 0.5 23.4545C0.5 30.106 4.08809 36.2798 10.1948 40.3003L6.19092 45.1049C5.15479 46.3481 6.33643 48.2199 7.92061 47.7769L20.3476 44.298C35.7162 47.0364 50.5 37.145 50.5 23.4546C50.5 11.4764 39.0751 2.1582 25.5 2.1582Z" fill="white"/>
<path d="M25.5 33.8539L24.05 32.5539C22.3667 31.0372 20.975 29.7289 19.875 28.6289C18.775 27.5289 17.9 26.5414 17.25 25.6664C16.6 24.7914 16.1458 23.9872 15.8875 23.2539C15.6292 22.5206 15.5 21.7706 15.5 21.0039C15.5 19.4372 16.025 18.1289 17.075 17.0789C18.125 16.0289 19.4333 15.5039 21 15.5039C21.8667 15.5039 22.6917 15.6872 23.475 16.0539C24.2583 16.4206 24.9333 16.9372 25.5 17.6039C26.0667 16.9372 26.7417 16.4206 27.525 16.0539C28.3083 15.6872 29.1333 15.5039 30 15.5039C31.5667 15.5039 32.875 16.0289 33.925 17.0789C34.975 18.1289 35.5 19.4372 35.5 21.0039C35.5 21.7706 35.3708 22.5206 35.1125 23.2539C34.8542 23.9872 34.4 24.7914 33.75 25.6664C33.1 26.5414 32.225 27.5289 31.125 28.6289C30.025 29.7289 28.6333 31.0372 26.95 32.5539L25.5 33.8539Z" fill="url(#paint0_linear_2562_23890)"/>
</g>
<defs>
<linearGradient id="paint0_linear_2562_23890" x1="16.9317" y1="31.9308" x2="34.3551" y2="29.1483" gradientUnits="userSpaceOnUse">
<stop stop-color="#F65205"/>
<stop offset="1" stop-color="#FF8951"/>
</linearGradient>
<clipPath id="clip0_2562_23890">
<rect width="50" height="50" fill="white" transform="translate(0.5)"/>
</clipPath>
</defs>
</svg>
