<svg width="60" height="60" viewBox="0 0 60 60" fill="none" xmlns="http://www.w3.org/2000/svg">
<path d="M30 2.58984C13.7129 2.58984 0 13.7689 0 28.1454C0 36.1271 4.3057 43.5357 11.6338 48.3603L6.8291 54.1259C5.58574 55.6178 7.00371 57.8639 8.90473 57.3322L23.8171 53.1577C42.2595 56.4437 60 44.574 60 28.1455C60 13.7716 46.2901 2.58984 30 2.58984Z" fill="#3F8931"/>
<path d="M30 2.58984C13.7129 2.58984 0 13.7689 0 28.1454C0 36.1271 4.3057 43.5357 11.6338 48.3603L6.8291 54.1259C5.58574 55.6178 7.00371 57.8639 8.90473 57.3322L23.8171 53.1577C42.2595 56.4437 60 44.574 60 28.1455C60 13.7716 46.2901 2.58984 30 2.58984Z" fill="url(#paint0_linear_2562_16825)"/>
<path d="M30 40.6255L28.26 39.0655C26.24 37.2455 24.57 35.6755 23.25 34.3555C21.93 33.0355 20.88 31.8505 20.1 30.8005C19.32 29.7505 18.775 28.7855 18.465 27.9055C18.155 27.0255 18 26.1255 18 25.2055C18 23.3255 18.63 21.7555 19.89 20.4955C21.15 19.2355 22.72 18.6055 24.6 18.6055C25.64 18.6055 26.63 18.8255 27.57 19.2655C28.51 19.7055 29.32 20.3255 30 21.1255C30.68 20.3255 31.49 19.7055 32.43 19.2655C33.37 18.8255 34.36 18.6055 35.4 18.6055C37.28 18.6055 38.85 19.2355 40.11 20.4955C41.37 21.7555 42 23.3255 42 25.2055C42 26.1255 41.845 27.0255 41.535 27.9055C41.225 28.7855 40.68 29.7505 39.9 30.8005C39.12 31.8505 38.07 33.0355 36.75 34.3555C35.43 35.6755 33.76 37.2455 31.74 39.0655L30 40.6255Z" fill="#29751B"/>
<defs>
<linearGradient id="paint0_linear_2562_16825" x1="4.29496" y1="51.6665" x2="56.5543" y2="43.2862" gradientUnits="userSpaceOnUse">
<stop stop-color="#F65205"/>
<stop offset="1" stop-color="#FF8951"/>
</linearGradient>
</defs>
</svg>
